<?xml version="1.0" encoding="UTF-8" standalone="no"?>

<svg
   xmlns:dc="http://purl.org/dc/elements/1.1/"
   xmlns:cc="http://creativecommons.org/ns#"
   xmlns:rdf="http://www.w3.org/1999/02/22-rdf-syntax-ns#"
   xmlns:svg="http://www.w3.org/2000/svg"
   xmlns="http://www.w3.org/2000/svg"
   xmlns:sodipodi="http://sodipodi.sourceforge.net/DTD/sodipodi-0.dtd"
	 viewBox="0 0 434 209"
   id="svg2"
   version="1.1"
   sodipodi:docname="logo.svg">
  <defs
     id="defs4" />
  <sodipodi:namedview
     id="base"
     pagecolor="#ffffff"
     bordercolor="#666666"
     borderopacity="1.0"
     showgrid="false"
     fit-margin-top="0"
     fit-margin-left="0"
     fit-margin-right="0"
     fit-margin-bottom="0" />
  <metadata
     id="metadata7">
    <rdf:RDF>
      <cc:Work
         rdf:about="">
        <dc:format>image/svg+xml</dc:format>
        <dc:type
           rdf:resource="http://purl.org/dc/dcmitype/StillImage" />
        <dc:title></dc:title>
      </cc:Work>
    </rdf:RDF>
  </metadata>
  <g
     id="layer1"
     transform="translate(-150.59699,-172.00345)">
    <rect
       id="rect3018-0-9-7-5-4-0"
       width="93"
       height="52"
       x="492"
       y="329"
       style="opacity:0.7;fill:#e4e400;fill-opacity:0.9" />
    <rect
       id="rect3018-2-1-5-9-1"
       width="90"
       height="100"
       x="400"
       y="225"
       style="opacity:0.7;fill:#f3f55c;fill-opacity:0.8" />
    <g
       style="font-size:40px;font-style:normal;font-weight:normal;line-height:125%;letter-spacing:0px;word-spacing:0px;fill:#000000;fill-opacity:1;stroke:none;font-family:Sans"
       id="text2985-5-8-8-6-4">
      <path
         d="m 217.84499,324.70584 c -3.26408,-5.47199 -6.91207,-11.32799 -10.944,-17.568 -4.03207,-6.33598 -8.20806,-12.67197 -12.528,-19.008 -4.32005,-6.43196 -8.73605,-12.62395 -13.248,-18.576 -4.41604,-6.04794 -8.64003,-11.47193 -12.672,-16.272 l 0,71.424 -17.856,0 0,-99.792 14.832,0 c 3.83997,4.0321 7.96796,8.83209 12.384,14.4 4.41596,5.47208 8.83195,11.18408 13.248,17.136 4.51194,5.95206 8.83194,11.95206 12.96,18 4.22393,5.95205 7.96793,11.52004 11.232,16.704 l 0,-66.24 18,0 0,99.792 -15.408,0"
         style="font-size:144px;font-variant:normal;font-weight:500;font-stretch:normal;font-family:Ubuntu"
         id="path3937" />
      <path
         d="m 310.39874,324.70584 c -1.12007,-3.28 -2.28006,-6.51999 -3.48,-9.72 -1.20006,-3.19999 -2.36006,-6.47998 -3.48,-9.84 l -35.04,0 c -1.12002,3.36002 -2.28002,6.68001 -3.48,9.96 -1.12002,3.20001 -2.24002,6.4 -3.36,9.6 l -15.72,0 c 3.12,-8.87999 6.07999,-17.07998 8.88,-24.6 2.79999,-7.51997 5.51998,-14.63996 8.16,-21.36 2.71998,-6.71995 5.39998,-13.11994 8.04,-19.2 2.63997,-6.07993 5.35997,-12.07992 8.16,-18 l 14.28,0 c 2.79995,5.92008 5.51995,11.92007 8.16,18 2.63994,6.08006 5.27994,12.48005 7.92,19.2 2.71993,6.72004 5.47993,13.84003 8.28,21.36 2.87992,7.52002 5.87992,15.72001 9,24.6 l -16.32,0 m -24.48,-67.08 c -1.84004,4.24006 -3.96004,9.40006 -6.36,15.48 -2.32003,6.08005 -4.76003,12.68004 -7.32,19.8 l 27.36,0 c -2.56005,-7.11996 -5.04005,-13.75995 -7.44,-19.92 -2.40005,-6.15994 -4.48004,-11.27994 -6.24,-15.36"
         style="font-size:120px"
         id="path3939" />
      <path
         d="m 372.08061,326.50584 c -6.24004,0 -11.84003,-0.96 -16.8,-2.88 -4.96002,-1.92 -9.16002,-4.71999 -12.6,-8.4 -3.44001,-3.75999 -6.08001,-8.31998 -7.92,-13.68 -1.84,-5.35997 -2.76,-11.51996 -2.76,-18.48 0,-6.95995 1.04,-13.11994 3.12,-18.48 2.15999,-5.35993 5.07999,-9.87993 8.76,-13.56 3.67998,-3.75992 7.99998,-6.59992 12.96,-8.52 4.95997,-1.91991 10.27996,-2.87991 15.96,-2.88 3.43995,9e-5 6.55995,0.28009 9.36,0.84 2.79994,0.48008 5.23994,1.04008 7.32,1.68 2.07994,0.64008 3.79994,1.32008 5.16,2.04 1.35993,0.72008 2.31993,1.24008 2.88,1.56 l -4.44,12.36 c -1.92006,-1.19993 -4.68006,-2.31993 -8.28,-3.36 -3.52005,-1.11993 -7.36005,-1.67993 -11.52,-1.68 -3.60004,7e-5 -6.96004,0.64007 -10.08,1.92 -3.12003,1.20007 -5.84003,3.04007 -8.16,5.52 -2.24002,2.48006 -4.00002,5.60006 -5.28,9.36 -1.28002,3.76005 -1.92002,8.12005 -1.92,13.08 -2e-5,4.40004 0.47998,8.44003 1.44,12.12 1.03998,3.68003 2.59998,6.88002 4.68,9.6 2.07997,2.64002 4.71997,4.72002 7.92,6.24 3.19996,1.44001 7.03996,2.16001 11.52,2.16 5.35995,1e-5 9.71995,-0.51999 13.08,-1.56 3.35994,-1.11998 5.95994,-2.15998 7.8,-3.12 l 4.08,12.36 c -0.96007,0.64 -2.28007,1.28 -3.96,1.92 -1.60006,0.64 -3.52006,1.28 -5.76,1.92 -2.24006,0.56 -4.76005,1 -7.56,1.32 -2.80005,0.4 -5.80005,0.6 -9,0.6"
         style="font-size:120px"
         id="path3941" />
      <path
         d="m 469.30499,324.70584 c -1.12007,-3.28 -2.28006,-6.51999 -3.48,-9.72 -1.20006,-3.19999 -2.36006,-6.47998 -3.48,-9.84 l -35.04,0 c -1.12002,3.36002 -2.28002,6.68001 -3.48,9.96 -1.12002,3.20001 -2.24002,6.4 -3.36,9.6 l -15.72,0 c 3.12,-8.87999 6.07999,-17.07998 8.88,-24.6 2.79999,-7.51997 5.51998,-14.63996 8.16,-21.36 2.71998,-6.71995 5.39998,-13.11994 8.04,-19.2 2.63997,-6.07993 5.35997,-12.07992 8.16,-18 l 14.28,0 c 2.79995,5.92008 5.51995,11.92007 8.16,18 2.63994,6.08006 5.27994,12.48005 7.92,19.2 2.71993,6.72004 5.47993,13.84003 8.28,21.36 2.87992,7.52002 5.87992,15.72001 9,24.6 l -16.32,0 m -24.48,-67.08 c -1.84004,4.24006 -3.96004,9.40006 -6.36,15.48 -2.32003,6.08005 -4.76003,12.68004 -7.32,19.8 l 27.36,0 c -2.56005,-7.11996 -5.04005,-13.75995 -7.44,-19.92 -2.40005,-6.15994 -4.48004,-11.27994 -6.24,-15.36"
         style="font-size:120px"
         id="path3943" />
      <path
         d="m 519.05624,240.70584 c 11.99995,9e-5 21.15994,2.20008 27.48,6.6 6.39993,4.40007 9.59993,11.12007 9.6,20.16 -7e-5,11.28005 -5.56007,18.92004 -16.68,22.92 1.51994,1.84003 3.23994,4.08003 5.16,6.72 1.91994,2.64003 3.87994,5.52002 5.88,8.64 1.99993,3.04002 3.91993,6.20001 5.76,9.48 1.83993,3.20001 3.47993,6.36 4.92,9.48 l -16.92,0 c -1.52006,-2.88 -3.16006,-5.75999 -4.92,-8.64 -1.76005,-2.95999 -3.56005,-5.79998 -5.4,-8.52 -1.76005,-2.79998 -3.52005,-5.39998 -5.28,-7.8 -1.76004,-2.47997 -3.40004,-4.67997 -4.92,-6.6 -1.12004,0.08 -2.08004,0.12003 -2.88,0.12 -0.80003,3e-5 -1.56003,3e-5 -2.28,0 l -7.32,0 0,31.44 -15.12,0 0,-81.96 c 3.67999,-0.79992 7.59998,-1.31992 11.76,-1.56 4.15997,-0.31992 7.87997,-0.47991 11.16,-0.48 m 1.08,13.08 c -3.20003,7e-5 -6.16003,0.12007 -8.88,0.36 l 0,26.88 6.6,0 c 3.67996,4e-5 6.91996,-0.19996 9.72,-0.6 2.79995,-0.39995 5.11995,-1.11995 6.96,-2.16 1.91995,-1.03995 3.35995,-2.43995 4.32,-4.2 0.95995,-1.75995 1.43994,-3.99994 1.44,-6.72 -6e-5,-2.55994 -0.48005,-4.71994 -1.44,-6.48 -0.96005,-1.75993 -2.36005,-3.15993 -4.2,-4.2 -1.76005,-1.03993 -3.88005,-1.75993 -6.36,-2.16 -2.48004,-0.47993 -5.20004,-0.71993 -8.16,-0.72"
         style="font-size:120px"
         id="path3945" />
    </g>
    <rect
       id="rect3018-3-7-1-0-9-1"
       width="93"
       height="52"
       x="305"
       y="172"
       style="opacity:0.7;fill:#e4e400;fill-opacity:0.9" />
    <g
       style="font-size:40px;font-style:normal;font-weight:normal;line-height:125%;letter-spacing:0px;word-spacing:0px;fill:#000000;fill-opacity:1;stroke:none;font-family:Sans"
       id="text3815">
      <path
         d="m 312.93892,220.3437 -16.92,16.44 -5.64,-5.04 15.36,-18.48 7.2,7.08"
         style="font-size:120px;font-variant:normal;font-stretch:normal;font-family:Ubuntu"
         id="path3948" />
    </g>
  </g>
</svg>
