<?xml version="1.0" encoding="UTF-8" standalone="no"?>
<svg
   xmlns:dc="http://purl.org/dc/elements/1.1/"
   xmlns:cc="http://creativecommons.org/ns#"
   xmlns:rdf="http://www.w3.org/1999/02/22-rdf-syntax-ns#"
   xmlns:svg="http://www.w3.org/2000/svg"
   xmlns="http://www.w3.org/2000/svg"
   viewBox="0 0 453.6713 377.95276"
   height="377.95276"
   width="453.6713"
   xml:space="preserve"
   id="svg2"
   version="1.1"><metadata
     id="metadata8"><rdf:RDF><cc:Work
         rdf:about=""><dc:format>image/svg+xml</dc:format><dc:type
           rdf:resource="http://purl.org/dc/dcmitype/StillImage" /><dc:title></dc:title></cc:Work></rdf:RDF></metadata><defs
     id="defs6"><clipPath
       id="clipPath24"
       clipPathUnits="userSpaceOnUse"><path
         id="path22"
         d="M 0,792 H 612 V 0 H 0 Z" /></clipPath><clipPath
       id="clipPath102"
       clipPathUnits="userSpaceOnUse"><path
         id="path100"
         d="M 0,792 H 612 V 0 H 0 Z" /></clipPath></defs><g
     transform="matrix(1.3333333,0,0,-1.3333333,-113.38583,415.74803)"
     id="g10"><g
       transform="matrix(0.91985336,0,0,0.91985336,-26.309153,-275.78218)"
       id="g96"><g
         clip-path="url(#clipPath102)"
         id="g98"><g
           transform="translate(400.97,490.6162)"
           id="g104"><path
             id="path106"
             style="fill:#010002;fill-opacity:1;fill-rule:nonzero;stroke:none"
             d="m 0,0 c 0.14,-11.23 -0.54,-20.27 -0.44,-31.49 0.11,-10.68 -7.18,-18.75 -17.66,-18.89 -24.26,-0.33 -48.54,-0.14 -72.81,-0.12 -0.79,0 -1.58,0.34 -2.74,0.61 2.56,15.15 5.35,30.09 7.54,45.12 2.63,17.97 5.95,36.05 0.51,54.05 -1.48,4.88 -3.84,9.79 -6.91,13.85 -5.45,7.21 -12.77,6.77 -18.19,-0.59 -5,-6.77 -6.82,-14.68 -7.76,-22.89 -0.29,-2.52 -1.04,-4.99 -1.59,-7.55 -10.45,3.19 -19.68,16.2 -20.6,27.88 -1.99,25.54 13.6,43.05 39.23,44.06 22.68,0.89 41.14,15.55 47.19,37.49 0.55,2 1.05,4.02 1.68,6.4 12.44,0 24.75,0.52 36.99,-0.2 6.89,-0.41 12.42,-5.02 13.84,-11.92 1.43,-6.97 1.18,-14.28 1.72,-22.26 -3.3,0.24 -5.1,0.29 -6.88,0.51 -27.45,3.35 -52.29,-17.22 -53.74,-44.74 -0.57,-10.92 -3.11,-20.82 -10.04,-29.75 -2.44,-3.14 -2.11,-8.42 -2.3,-12.97 12.97,9.1 19.74,21.57 20.1,37 0.36,15.27 6.34,27 19.25,35.13 8.58,5.41 18.05,6.03 27.83,4.85 3.76,-0.45 5.44,-2.21 5.44,-6.13 C -0.4,70.25 -0.27,43.05 -0.35,15.85 -0.36,11.29 -0.06,4.55 0,0" /></g><g
           transform="translate(335.73,638.7863)"
           id="g108"><path
             id="path110"
             style="fill:#010002;fill-opacity:1;fill-rule:nonzero;stroke:none"
             d="M 0,0 C 0.8,0 1.61,-0.26 3.46,-0.58 2.6,-3.72 2.18,-6.75 0.97,-9.43 c -7.2,-15.92 -19.89,-23.7 -37.11,-24.29 -34.3,-1.2 -56.97,-34.74 -44.96,-66.64 7.48,-19.89 25.91,-32.29 47.23,-31.8 1.82,0.05 3.64,0.01 6.98,0.01 -2.07,-8.98 -3.83,-17.24 -5.98,-25.41 -0.37,-1.4 -2.48,-3.35 -3.68,-3.27 -1.37,0.09 -3.39,1.93 -3.79,3.38 -1.53,5.57 -2.52,11.28 -3.8,17.41 -2.72,0.26 -5.32,0.51 -9.12,0.87 3.38,-20.06 6.61,-39.27 9.96,-59.15 -2.58,-0.15 -4.81,-0.39 -7.04,-0.39 -21.76,-0.03 -43.52,-0.04 -65.28,0 -14.44,0.02 -20.76,6.36 -20.8,21.3 -0.11,35.36 -0.04,70.72 -0.04,106.08 0,16.94 -0.04,33.89 0.02,50.84 0.02,7.19 1.42,13.95 8.35,17.76 2.64,1.45 5.87,2.58 8.83,2.59 C -79.5,0.04 -39.75,0 0,0" /></g><g
           transform="translate(305.96,540.8663)"
           id="g112"><path
             id="path114"
             style="fill:#010002;fill-opacity:1;fill-rule:nonzero;stroke:none"
             d="m 0,0 c 3.5,-6.73 4.72,-14.11 3.84,-23.04 h -20.8 c 1.46,8.09 2.38,15.46 4.32,22.56 0.59,2.17 3.95,4.85 6.15,4.95 C -4.34,4.57 -1.12,2.16 0,0" /></g><g
           transform="translate(245.6663,414.8413)"
           id="g116"><path
             id="path118"
             style="fill:#211915;fill-opacity:1;fill-rule:nonzero;stroke:none"
             d="M 0,0 5.555,13.266 12.625,12.335 4.938,-0.65 Z" /></g><g
           transform="translate(121.0503,402.6246)"
           id="g120"><path
             id="path122"
             style="fill:#010002;fill-opacity:1;fill-rule:nonzero;stroke:none"
             d="m 0,0 h 13.5 c 1.8,0 3.6,-0.81 4.77,-2.16 L 55.979,-45.988 V 0 h 10.798 c 3.511,0 6.3,-2.79 6.3,-6.3 V -71.997 H 55.798 L 17.1,-26.999 V -71.997 H 0 Z" /></g><g
           transform="translate(245.9683,361.5865)"
           id="g124"><path
             id="path126"
             style="fill:#010002;fill-opacity:1;fill-rule:nonzero;stroke:none"
             d="M 0,0 -5.22,11.43 -10.529,0 Z m -11.159,36.988 0.09,0.09 c 0.9,2.25 3.15,3.87 5.759,3.87 2.611,0 4.771,-1.53 5.76,-3.69 l 31.86,-68.127 -0.181,-0.09 H 14.49 l -6.929,14.85 h -25.65 l -6.93,-14.85 h -17.819 z" /></g><g
           transform="translate(280.5308,365.0963)"
           id="g128"><path
             id="path130"
             style="fill:#010002;fill-opacity:1;fill-rule:nonzero;stroke:none"
             d="m 0,0 c 0,20.609 15.659,37.528 36.269,37.528 10.08,0 18.809,-3.78 25.109,-10.619 l -8.19,-8.19 c -1.89,-1.89 -4.95,-2.52 -7.47,-0.63 -3.15,1.26 -6.299,2.52 -10.079,2.52 -9.99,0 -18.089,-8.099 -18.089,-18.179 0,-10.35 7.47,-20.07 18.719,-20.07 3.15,0 6.929,1.351 9.449,2.611 2.52,1.889 5.58,1.259 7.47,-0.63 l 8.19,-8.191 C 55.078,-30.779 45.718,-34.469 35.099,-34.469 16.199,-34.469 0,-18.81 0,0" /></g><g
           transform="translate(389.2495,361.5865)"
           id="g132"><path
             id="path134"
             style="fill:#010002;fill-opacity:1;fill-rule:nonzero;stroke:none"
             d="M 0,0 -5.22,11.43 -10.529,0 Z m -11.159,36.988 0.09,0.09 c 0.9,2.25 3.15,3.87 5.759,3.87 2.611,0 4.771,-1.53 5.76,-3.69 l 31.86,-68.127 -0.181,-0.09 H 14.49 l -6.929,14.85 h -25.65 l -6.93,-14.85 h -17.819 z" /></g><g
           transform="translate(430.562,360.9566)"
           id="g136"><path
             id="path138"
             style="fill:#010002;fill-opacity:1;fill-rule:nonzero;stroke:none"
             d="m 0,0 c 0,3.42 2.88,6.3 6.3,6.3 h 20.519 c 5.22,0 9.36,4.229 9.089,9.449 -0.179,4.95 -4.409,8.73 -9.269,8.73 H 0 v 17.099 h 26.549 c 14.399,0 26.639,-11.699 26.549,-26.099 0,-10.44 -6.119,-19.349 -15.03,-23.489 l 22.32,-22.319 H 36.629 L 17.1,-10.8 V -30.329 H 0 Z" /></g><g
           transform="translate(316.2625,218.3689)"
           id="g144" /></g></g></g></svg>